<?xml version="1.0" encoding="UTF-8" standalone="no"?>
<!DOCTYPE svg PUBLIC "-//W3C//DTD SVG 1.1//EN"
 "http://www.w3.org/Graphics/SVG/1.1/DTD/svg11.dtd">
<!-- Generated by graphviz version 2.38.0 (20140413.2041)
 -->
<!-- Title: snakemake_dag Pages: 1 -->
<svg width="225pt" height="332pt"
 viewBox="0.00 0.00 225.37 332.00" xmlns="http://www.w3.org/2000/svg" xmlns:xlink="http://www.w3.org/1999/xlink">
<g id="graph0" class="graph" transform="scale(1 1) rotate(0) translate(4 328)">
<title>snakemake_dag</title>
<polygon fill="white" stroke="none" points="-4,4 -4,-328 221.367,-328 221.367,4 -4,4"/>
<!-- 0 -->
<g id="node1" class="node"><title>0</title>
<path fill="none" stroke="#afd856" stroke-width="2" stroke-dasharray="5,2" d="M124.5,-36C124.5,-36 81.2044,-36 81.2044,-36 75.2044,-36 69.2044,-30 69.2044,-24 69.2044,-24 69.2044,-12 69.2044,-12 69.2044,-6 75.2044,-0 81.2044,-0 81.2044,-0 124.5,-0 124.5,-0 130.5,-0 136.5,-6 136.5,-12 136.5,-12 136.5,-24 136.5,-24 136.5,-30 130.5,-36 124.5,-36"/>
<text text-anchor="middle" x="102.852" y="-15" font-family="sans" font-size="10.00">full_dataset</text>
</g>
<!-- 1 -->
<g id="node2" class="node"><title>1</title>
<path fill="none" stroke="#d85656" stroke-width="2" stroke-dasharray="5,2" d="M65.5567,-180C65.5567,-180 12.1474,-180 12.1474,-180 6.14739,-180 0.147388,-174 0.147388,-168 0.147388,-168 0.147388,-156 0.147388,-156 0.147388,-150 6.14739,-144 12.1474,-144 12.1474,-144 65.5567,-144 65.5567,-144 71.5567,-144 77.5567,-150 77.5567,-156 77.5567,-156 77.5567,-168 77.5567,-168 77.5567,-174 71.5567,-180 65.5567,-180"/>
<text text-anchor="middle" x="38.8521" y="-159" font-family="sans" font-size="10.00">full_alignment</text>
</g>
<!-- 1&#45;&gt;0 -->
<g id="edge1" class="edge"><title>1&#45;&gt;0</title>
<path fill="none" stroke="grey" stroke-width="2" d="M40.0187,-143.787C41.8343,-125.237 46.4153,-95.2507 57.8521,-72 62.8585,-61.822 70.2527,-51.9749 77.6072,-43.5872"/>
<polygon fill="grey" stroke="grey" stroke-width="2" points="80.3676,-45.7564 84.567,-36.0293 75.2183,-41.0145 80.3676,-45.7564"/>
</g>
<!-- 2 -->
<g id="node3" class="node"><title>2</title>
<path fill="none" stroke="#59d856" stroke-width="2" stroke-dasharray="5,2" d="M126.439,-108C126.439,-108 79.2649,-108 79.2649,-108 73.2649,-108 67.2649,-102 67.2649,-96 67.2649,-96 67.2649,-84 67.2649,-84 67.2649,-78 73.2649,-72 79.2649,-72 79.2649,-72 126.439,-72 126.439,-72 132.439,-72 138.439,-78 138.439,-84 138.439,-84 138.439,-96 138.439,-96 138.439,-102 132.439,-108 126.439,-108"/>
<text text-anchor="middle" x="102.852" y="-87" font-family="sans" font-size="10.00">indicial_map</text>
</g>
<!-- 1&#45;&gt;2 -->
<g id="edge5" class="edge"><title>1&#45;&gt;2</title>
<path fill="none" stroke="grey" stroke-width="2" d="M54.6723,-143.697C62.4225,-135.22 71.8911,-124.864 80.3765,-115.583"/>
<polygon fill="grey" stroke="grey" stroke-width="2" points="83.0492,-117.846 87.2138,-108.104 77.883,-113.123 83.0492,-117.846"/>
</g>
<!-- 2&#45;&gt;0 -->
<g id="edge2" class="edge"><title>2&#45;&gt;0</title>
<path fill="none" stroke="grey" stroke-width="2" d="M102.852,-71.6966C102.852,-63.9827 102.852,-54.7125 102.852,-46.1124"/>
<polygon fill="grey" stroke="grey" stroke-width="2" points="106.352,-46.1043 102.852,-36.1043 99.3522,-46.1044 106.352,-46.1043"/>
</g>
<!-- 3 -->
<g id="node4" class="node"><title>3</title>
<path fill="none" stroke="#d8ac56" stroke-width="2" stroke-dasharray="5,2" d="M205.381,-108C205.381,-108 168.323,-108 168.323,-108 162.323,-108 156.323,-102 156.323,-96 156.323,-96 156.323,-84 156.323,-84 156.323,-78 162.323,-72 168.323,-72 168.323,-72 205.381,-72 205.381,-72 211.381,-72 217.381,-78 217.381,-84 217.381,-84 217.381,-96 217.381,-96 217.381,-102 211.381,-108 205.381,-108"/>
<text text-anchor="middle" x="186.852" y="-92" font-family="sans" font-size="10.00">fubar</text>
<text text-anchor="middle" x="186.852" y="-82" font-family="sans" font-size="10.00">dataset: S</text>
</g>
<!-- 3&#45;&gt;0 -->
<g id="edge3" class="edge"><title>3&#45;&gt;0</title>
<path fill="none" stroke="grey" stroke-width="2" d="M166.088,-71.6966C155.611,-62.9655 142.741,-52.2405 131.352,-42.7503"/>
<polygon fill="grey" stroke="grey" stroke-width="2" points="133.3,-39.8174 123.377,-36.1043 128.819,-45.195 133.3,-39.8174"/>
</g>
<!-- 4 -->
<g id="node5" class="node"><title>4</title>
<path fill="none" stroke="#56d8a9" stroke-width="2" stroke-dasharray="5,2" d="M107.237,-252C107.237,-252 36.4675,-252 36.4675,-252 30.4675,-252 24.4675,-246 24.4675,-240 24.4675,-240 24.4675,-228 24.4675,-228 24.4675,-222 30.4675,-216 36.4675,-216 36.4675,-216 107.237,-216 107.237,-216 113.237,-216 119.237,-222 119.237,-228 119.237,-228 119.237,-240 119.237,-240 119.237,-246 113.237,-252 107.237,-252"/>
<text text-anchor="middle" x="71.8521" y="-231" font-family="sans" font-size="10.00">amino_acid_fasta</text>
</g>
<!-- 4&#45;&gt;1 -->
<g id="edge4" class="edge"><title>4&#45;&gt;1</title>
<path fill="none" stroke="grey" stroke-width="2" d="M63.6947,-215.697C59.9383,-207.728 55.399,-198.1 51.2337,-189.264"/>
<polygon fill="grey" stroke="grey" stroke-width="2" points="54.3456,-187.657 46.9155,-180.104 48.0139,-190.642 54.3456,-187.657"/>
</g>
<!-- 4&#45;&gt;2 -->
<g id="edge6" class="edge"><title>4&#45;&gt;2</title>
<path fill="none" stroke="grey" stroke-width="2" d="M77.1444,-215.924C80.2318,-205.591 84.0562,-192.113 86.8521,-180 91.5887,-159.478 95.7549,-136.024 98.6478,-118.346"/>
<polygon fill="grey" stroke="grey" stroke-width="2" points="102.153,-118.591 100.278,-108.163 95.2411,-117.484 102.153,-118.591"/>
</g>
<!-- 5 -->
<g id="node6" class="node"><title>5</title>
<path fill="none" stroke="#56a9d8" stroke-width="2" stroke-dasharray="5,2" d="M95.3411,-324C95.3411,-324 48.363,-324 48.363,-324 42.363,-324 36.363,-318 36.363,-312 36.363,-312 36.363,-300 36.363,-300 36.363,-294 42.363,-288 48.363,-288 48.363,-288 95.3411,-288 95.3411,-288 101.341,-288 107.341,-294 107.341,-300 107.341,-300 107.341,-312 107.341,-312 107.341,-318 101.341,-324 95.3411,-324"/>
<text text-anchor="middle" x="71.8521" y="-308" font-family="sans" font-size="10.00">codon_fasta</text>
<text text-anchor="middle" x="71.8521" y="-298" font-family="sans" font-size="10.00">dataset: S</text>
</g>
<!-- 5&#45;&gt;4 -->
<g id="edge7" class="edge"><title>5&#45;&gt;4</title>
<path fill="none" stroke="grey" stroke-width="2" d="M71.8521,-287.697C71.8521,-279.983 71.8521,-270.712 71.8521,-262.112"/>
<polygon fill="grey" stroke="grey" stroke-width="2" points="75.3522,-262.104 71.8521,-252.104 68.3522,-262.104 75.3522,-262.104"/>
</g>
</g>
</svg>
