<?xml version="1.0" encoding="UTF-8" standalone="no"?>
<!DOCTYPE svg PUBLIC "-//W3C//DTD SVG 1.1//EN"
 "http://www.w3.org/Graphics/SVG/1.1/DTD/svg11.dtd">
<!-- Generated by graphviz version 2.38.0 (20140413.2041)
 -->
<!-- Title: snakemake_dag Pages: 1 -->
<svg width="269pt" height="260pt"
 viewBox="0.00 0.00 268.73 260.00" xmlns="http://www.w3.org/2000/svg" xmlns:xlink="http://www.w3.org/1999/xlink">
<g id="graph0" class="graph" transform="scale(1 1) rotate(0) translate(4 256)">
<title>snakemake_dag</title>
<polygon fill="white" stroke="none" points="-4,4 -4,-256 264.729,-256 264.729,4 -4,4"/>
<!-- 0 -->
<g id="node1" class="node"><title>0</title>
<path fill="none" stroke="#56a9d8" stroke-width="2" d="M123.512,-36C123.512,-36 80.2166,-36 80.2166,-36 74.2166,-36 68.2166,-30 68.2166,-24 68.2166,-24 68.2166,-12 68.2166,-12 68.2166,-6 74.2166,-0 80.2166,-0 80.2166,-0 123.512,-0 123.512,-0 129.512,-0 135.512,-6 135.512,-12 135.512,-12 135.512,-24 135.512,-24 135.512,-30 129.512,-36 123.512,-36"/>
<text text-anchor="middle" x="101.864" y="-15" font-family="sans" font-size="10.00">full_dataset</text>
</g>
<!-- 1 -->
<g id="node2" class="node"><title>1</title>
<path fill="none" stroke="#d85656" stroke-width="2" d="M85.5931,-108C85.5931,-108 12.1354,-108 12.1354,-108 6.13537,-108 0.135366,-102 0.135366,-96 0.135366,-96 0.135366,-84 0.135366,-84 0.135366,-78 6.13537,-72 12.1354,-72 12.1354,-72 85.5931,-72 85.5931,-72 91.5931,-72 97.5931,-78 97.5931,-84 97.5931,-84 97.5931,-96 97.5931,-96 97.5931,-102 91.5931,-108 85.5931,-108"/>
<text text-anchor="middle" x="48.8643" y="-92" font-family="sans" font-size="10.00">meme</text>
<text text-anchor="middle" x="48.8643" y="-82" font-family="sans" font-size="10.00">dataset: S&#45;032420</text>
</g>
<!-- 1&#45;&gt;0 -->
<g id="edge1" class="edge"><title>1&#45;&gt;0</title>
<path fill="none" stroke="grey" stroke-width="2" d="M61.9654,-71.6966C68.2552,-63.3893 75.9116,-53.2771 82.8291,-44.1407"/>
<polygon fill="grey" stroke="grey" stroke-width="2" points="85.6678,-46.1897 88.9138,-36.1043 80.087,-41.9642 85.6678,-46.1897"/>
</g>
<!-- 2 -->
<g id="node3" class="node"><title>2</title>
<path fill="none" stroke="#d8ac56" stroke-width="2" stroke-dasharray="5,2" d="M181.569,-108C181.569,-108 128.16,-108 128.16,-108 122.16,-108 116.16,-102 116.16,-96 116.16,-96 116.16,-84 116.16,-84 116.16,-78 122.16,-72 128.16,-72 128.16,-72 181.569,-72 181.569,-72 187.569,-72 193.569,-78 193.569,-84 193.569,-84 193.569,-96 193.569,-96 193.569,-102 187.569,-108 181.569,-108"/>
<text text-anchor="middle" x="154.864" y="-87" font-family="sans" font-size="10.00">full_alignment</text>
</g>
<!-- 2&#45;&gt;0 -->
<g id="edge2" class="edge"><title>2&#45;&gt;0</title>
<path fill="none" stroke="grey" stroke-width="2" d="M141.763,-71.6966C135.473,-63.3893 127.817,-53.2771 120.899,-44.1407"/>
<polygon fill="grey" stroke="grey" stroke-width="2" points="123.642,-41.9642 114.815,-36.1043 118.061,-46.1897 123.642,-41.9642"/>
</g>
<!-- 3 -->
<g id="node4" class="node"><title>3</title>
<path fill="none" stroke="#56d8a9" stroke-width="2" stroke-dasharray="5,2" d="M133.249,-180C133.249,-180 62.4797,-180 62.4797,-180 56.4797,-180 50.4797,-174 50.4797,-168 50.4797,-168 50.4797,-156 50.4797,-156 50.4797,-150 56.4797,-144 62.4797,-144 62.4797,-144 133.249,-144 133.249,-144 139.249,-144 145.249,-150 145.249,-156 145.249,-156 145.249,-168 145.249,-168 145.249,-174 139.249,-180 133.249,-180"/>
<text text-anchor="middle" x="97.8643" y="-159" font-family="sans" font-size="10.00">amino_acid_fasta</text>
</g>
<!-- 3&#45;&gt;2 -->
<g id="edge3" class="edge"><title>3&#45;&gt;2</title>
<path fill="none" stroke="grey" stroke-width="2" d="M111.954,-143.697C118.788,-135.305 127.121,-125.07 134.62,-115.861"/>
<polygon fill="grey" stroke="grey" stroke-width="2" points="137.336,-118.069 140.936,-108.104 131.908,-113.649 137.336,-118.069"/>
</g>
<!-- 4 -->
<g id="node5" class="node"><title>4</title>
<path fill="none" stroke="#59d856" stroke-width="2" stroke-dasharray="5,2" d="M248.593,-180C248.593,-180 175.135,-180 175.135,-180 169.135,-180 163.135,-174 163.135,-168 163.135,-168 163.135,-156 163.135,-156 163.135,-150 169.135,-144 175.135,-144 175.135,-144 248.593,-144 248.593,-144 254.593,-144 260.593,-150 260.593,-156 260.593,-156 260.593,-168 260.593,-168 260.593,-174 254.593,-180 248.593,-180"/>
<text text-anchor="middle" x="211.864" y="-164" font-family="sans" font-size="10.00">pdb_fasta</text>
<text text-anchor="middle" x="211.864" y="-154" font-family="sans" font-size="10.00">dataset: S&#45;032420</text>
</g>
<!-- 4&#45;&gt;2 -->
<g id="edge4" class="edge"><title>4&#45;&gt;2</title>
<path fill="none" stroke="grey" stroke-width="2" d="M197.774,-143.697C190.941,-135.305 182.607,-125.07 175.108,-115.861"/>
<polygon fill="grey" stroke="grey" stroke-width="2" points="177.82,-113.649 168.792,-108.104 172.392,-118.069 177.82,-113.649"/>
</g>
<!-- 5 -->
<g id="node6" class="node"><title>5</title>
<path fill="none" stroke="#afd856" stroke-width="2" stroke-dasharray="5,2" d="M134.593,-252C134.593,-252 61.1354,-252 61.1354,-252 55.1354,-252 49.1354,-246 49.1354,-240 49.1354,-240 49.1354,-228 49.1354,-228 49.1354,-222 55.1354,-216 61.1354,-216 61.1354,-216 134.593,-216 134.593,-216 140.593,-216 146.593,-222 146.593,-228 146.593,-228 146.593,-240 146.593,-240 146.593,-246 140.593,-252 134.593,-252"/>
<text text-anchor="middle" x="97.8643" y="-236" font-family="sans" font-size="10.00">codon_fasta</text>
<text text-anchor="middle" x="97.8643" y="-226" font-family="sans" font-size="10.00">dataset: S&#45;032420</text>
</g>
<!-- 5&#45;&gt;3 -->
<g id="edge5" class="edge"><title>5&#45;&gt;3</title>
<path fill="none" stroke="grey" stroke-width="2" d="M97.8643,-215.697C97.8643,-207.983 97.8643,-198.712 97.8643,-190.112"/>
<polygon fill="grey" stroke="grey" stroke-width="2" points="101.364,-190.104 97.8643,-180.104 94.3644,-190.104 101.364,-190.104"/>
</g>
</g>
</svg>
